<svg width="48" height="48" viewBox="0 0 48 48" fill="none" xmlns="http://www.w3.org/2000/svg">
<rect width="48" height="48" rx="24" fill="white"/>
<mask id="mask0_6_255" style="mask-type:alpha" maskUnits="userSpaceOnUse" x="12" y="12" width="24" height="24">
<rect x="12" y="12" width="24" height="24" fill="#D9D9D9"/>
</mask>
<g mask="url(#mask0_6_255)">
<path d="M25.525 29.1C25.375 28.95 25.3 28.7707 25.3 28.562C25.3 28.354 25.375 28.175 25.525 28.025L28.825 24.75H17.05C16.8333 24.75 16.6543 24.679 16.513 24.537C16.371 24.3957 16.3 24.2167 16.3 24C16.3 23.7834 16.371 23.604 16.513 23.462C16.6543 23.3207 16.8333 23.25 17.05 23.25H28.825L25.5 19.95C25.3667 19.8 25.3 19.625 25.3 19.425C25.3 19.225 25.375 19.05 25.525 18.9C25.675 18.7334 25.85 18.65 26.05 18.65C26.25 18.65 26.4333 18.7334 26.6 18.9L31.075 23.375C31.1583 23.4584 31.221 23.554 31.263 23.662C31.3043 23.7707 31.325 23.8834 31.325 24C31.325 24.1167 31.3043 24.229 31.263 24.337C31.221 24.4457 31.1583 24.5417 31.075 24.625L26.575 29.125C26.425 29.275 26.25 29.35 26.05 29.35C25.85 29.35 25.675 29.2667 25.525 29.1Z" fill="#00A18B"/>
</g>
<rect x="0.5" y="0.5" width="47" height="47" rx="23.5" stroke="#00A18B" stroke-opacity="0.4"/>
</svg>
