<svg width="431" height="349" viewBox="0 0 431 349" fill="none" xmlns="http://www.w3.org/2000/svg">
<path d="M153.118 302.293C142.099 302.293 132.511 301.508 124.102 299.944C104.505 296.304 93.227 288.785 81.535 280.067C63.6219 266.706 45.1687 251.787 31.576 233.215C16.6086 212.77 9.64392 190.129 11.9655 169.474C14.6377 145.69 26.0982 121.296 46.0243 96.9584C55.5771 85.2874 67.9494 77.937 79.9078 70.8251C89.7201 64.9896 99.869 58.9578 108.692 50.4921C136.796 23.5593 184.28 -10.3383 271.769 6.13709C298.099 11.0958 321.546 24.7446 336.661 43.4854C348.675 49.0824 356.966 61.7142 363.909 73.4833C369.99 83.7795 373.469 94.0827 376.843 104.042C381.724 118.463 386.767 133.374 399.771 149C400.774 150.207 401.812 151.441 402.864 152.697C413.426 165.272 426.577 180.927 429.193 196.722C432.392 216.052 426.002 234.73 412.907 244.311C404.028 250.805 391.466 253.772 376.59 252.895C369.106 252.454 361.602 251.17 354.342 249.922C349.342 249.066 344.173 248.182 339.059 247.579C310.717 244.247 281.147 249.459 255.792 262.266C239.709 270.388 239.176 277.114 238.749 282.529C238.279 288.441 237.907 293.112 218.31 296.184C192.198 300.266 170.813 302.293 153.118 302.293ZM227.751 2.50396C167.825 2.50396 132.055 29.0651 109.169 50.9971C100.283 59.5118 90.0988 65.5717 80.2515 71.4212C67.7951 78.8278 56.033 85.8275 46.5504 97.4002C26.7084 121.626 15.304 145.9 12.6458 169.551C10.3453 190.038 17.2609 212.496 32.123 232.801C45.6666 251.296 64.0708 266.179 81.9348 279.506C106.925 298.141 129.902 309.321 218.177 295.483C237.227 292.495 237.563 288.287 238.026 282.465C238.468 276.883 239.022 269.932 255.455 261.635C280.936 248.764 310.647 243.525 339.123 246.878C344.257 247.481 349.433 248.365 354.441 249.227C361.679 250.469 369.163 251.745 376.611 252.187C391.333 253.057 403.726 250.139 412.473 243.735C425.35 234.309 431.634 215.898 428.478 196.827C425.897 181.222 412.816 165.651 402.31 153.139C401.251 151.883 400.22 150.649 399.21 149.442C386.129 133.717 381.058 118.743 376.162 104.26C372.803 94.3352 369.331 84.067 363.285 73.834C356.348 62.0789 348.675 50.3729 337.615 44.7058C339.796 47.5043 341.788 50.422 343.583 53.4309L342.98 53.7886C340.96 50.401 338.681 47.1325 336.17 44.0114C334.129 43.0856 331.976 42.3702 329.689 41.8863L329.836 41.1989C331.716 41.5917 333.512 42.1528 335.237 42.8612C320.206 24.7937 297.299 11.6499 271.629 6.81742C255.729 3.82956 241.133 2.50396 227.751 2.50396Z" fill="#EDFBF9"/>
<path d="M32.9437 216.298C18.9231 186.124 19.9892 150.27 33.0348 119.718C46.9221 87.1812 75.7417 61.8124 107.984 43.9975C164.753 12.6319 235.024 2.42686 298.639 18.6497C315.058 22.8369 331.204 28.8197 344.72 38.4916C358.235 48.1636 368.98 61.8545 372.242 77.4812C374.5 88.3034 373.139 99.5184 374.696 110.446C380.904 153.819 424.417 174.019 423.835 217.778C423.47 245.124 403.509 264.265 375.566 281.266C351.074 296.163 99.4131 359.35 32.9437 216.298Z" fill="#EBFAF8"/>
<path d="M396.264 273.923C395.401 274.722 394.552 275.515 393.718 276.293C390.512 279.281 387.56 282.073 385.196 284.577C363.79 307.175 355.914 347.925 355.914 347.925H343.317C343.317 347.925 343.892 342.363 345.582 333.729C348.507 318.741 354.756 294.073 367.079 270.837C367.535 269.967 368.005 269.111 368.482 268.249C374.802 256.823 382.622 245.854 392.294 236.68C393.234 235.782 394.566 234.786 396.152 233.79C396.629 233.495 397.126 233.201 397.638 232.906C404.947 228.789 416.099 225.556 420.889 232.562C420.966 232.675 421.043 232.787 421.114 232.906C428.071 244.086 410.635 260.561 396.264 273.923Z" fill="#D7F3EF"/>
<path d="M405.585 183.943C405.389 184.441 405.185 184.939 404.975 185.451C401.349 194.134 395.05 204.9 385.371 218.065C375.11 232.001 364.183 258.85 356.952 290.419C356.952 290.433 356.945 290.454 356.938 290.468C356.643 291.766 356.348 293.07 356.068 294.382C356.054 294.459 356.033 294.529 356.019 294.606C353.318 307.133 351.207 320.333 349.966 333.701C349.566 338.014 349.258 343.604 349.04 347.918C349.026 348.283 348.998 347.539 348.984 347.918H329.857C328.553 325.376 330.615 244.528 348.619 200.909C348.83 200.39 349.047 199.878 349.265 199.373C350.162 197.304 351.109 195.326 352.105 193.447C377.193 146.251 397.751 152.627 404.056 157.697C404.266 157.866 404.463 158.034 404.645 158.202C404.659 158.217 404.68 158.238 404.701 158.252C409.541 162.747 410.712 170.89 405.585 183.943Z" fill="#D7F3EF"/>
<path d="M386.711 331.4C382.362 337.797 377.502 343.857 373.96 347.918H353.823C353.929 347.686 369.331 294.361 391.186 298.373C401.84 300.329 395.163 318.979 386.711 331.4Z" fill="#D7F3EF"/>
<path d="M404.708 158.252C393.886 167.068 384.908 177.624 377.46 189.21C377.285 189.477 377.116 189.743 376.948 190.01C354.974 224.672 346.536 268.361 343.499 302.321C343.471 302.602 343.45 302.889 343.422 303.17C341.753 322.353 341.802 338.519 342.082 347.911H341.711H341.248C340.834 334.038 340.778 297.538 349.208 259.124C351.853 247.067 355.128 235.726 358.986 225.198C359.091 224.91 359.196 224.623 359.301 224.342C362.016 217.027 365.017 210.111 368.293 203.631C377.86 184.715 389.888 169.263 404.063 157.683C404.273 157.852 404.47 158.02 404.652 158.188C404.673 158.224 404.694 158.238 404.708 158.252Z" fill="#AEEAE2"/>
<path d="M405.585 183.943C405.389 184.441 405.185 184.939 404.975 185.451C399.02 189.498 388.696 190.192 382.299 190.192C379.62 190.192 377.628 190.073 376.948 190.017C376.836 190.01 376.758 190.003 376.716 190.003L376.787 189.175C376.808 189.175 377.046 189.196 377.46 189.217C381.079 189.421 398.382 190.045 405.585 183.943Z" fill="#AEEAE2"/>
<path d="M359.848 224.875L359.287 225.493C359.189 225.401 359.084 225.31 358.993 225.212C351.677 218.289 349.293 205.7 348.633 200.909C348.844 200.39 349.061 199.878 349.279 199.373C349.573 202.095 351.453 216.648 359.308 224.356C359.477 224.539 359.659 224.707 359.848 224.875Z" fill="#AEEAE2"/>
<path d="M356.019 294.606C351.804 301.922 344.481 303.058 343.429 303.184C343.352 303.198 343.31 303.198 343.303 303.198L343.233 302.37C343.24 302.37 343.338 302.363 343.499 302.335C345.133 302.104 353.746 300.414 356.945 290.426L356.019 294.606Z" fill="#AEEAE2"/>
<path d="M392.736 298.829C388.794 301.823 384.894 306.438 381.219 311.804C381.044 312.056 380.876 312.302 380.707 312.554C375.629 320.094 370.993 329.002 367.276 336.941C367.157 337.201 367.03 337.46 366.918 337.72C365.214 341.374 363.72 344.965 362.464 347.932C362.443 347.988 362.422 347.876 362.394 347.932H362.009H361.623C364.849 340.266 369.752 329.149 375.517 319.295C375.727 318.937 375.938 318.579 376.148 318.222C380.946 310.163 386.304 302.84 391.775 298.52C392.119 298.597 392.434 298.702 392.736 298.829Z" fill="#AEEAE2"/>
<path d="M385.364 333.35C384.838 334.094 384.312 334.83 383.779 335.553C380.216 337.72 376.071 338.281 372.747 338.281C369.913 338.281 367.676 337.874 366.918 337.72C366.743 337.685 366.652 337.664 366.638 337.657L366.834 336.85C366.848 336.85 367.002 336.892 367.276 336.941C369.45 337.362 379.136 338.87 385.364 333.35Z" fill="#AEEAE2"/>
<path d="M396.671 306.726C396.657 307.266 396.614 307.827 396.544 308.402C393.577 312.155 388.598 312.919 385.007 312.919C382.692 312.919 380.96 312.596 380.714 312.547C380.686 312.54 380.855 311.727 380.855 311.727C380.869 311.727 380.995 311.755 381.226 311.797C383.232 312.127 392.89 313.312 396.671 306.726Z" fill="#AEEAE2"/>
<path d="M376.155 318.215C376.261 318.783 376.338 319.112 376.345 319.126L375.538 319.33C375.538 319.316 375.531 319.302 375.524 319.288C375.335 318.509 373.497 310.359 377.025 303.535C377.691 302.925 378.372 302.356 379.066 301.837C374.774 307.61 375.692 315.542 376.155 318.215C376.162 318.208 376.155 318.215 376.155 318.215Z" fill="#AEEAE2"/>
<path d="M188.53 348.142H174.958C172.868 334.045 168.169 313.333 157.754 298.246C155.839 295.476 153.405 292.327 150.754 288.953C150.06 288.083 149.358 287.186 148.636 286.281C136.747 271.201 122.348 252.65 130.751 242.887V242.88C130.849 242.782 130.926 242.676 131.024 242.585C136.705 236.525 147.009 241.33 153.454 246.401C153.91 246.765 154.345 247.123 154.759 247.481C156.147 248.68 157.284 249.844 158.062 250.854C166.044 261.172 171.971 272.955 176.361 284.948C176.691 285.853 177.02 286.758 177.329 287.663C185.121 310.135 187.723 333.014 188.53 348.142Z" fill="#D7F3EF"/>
<path d="M148.453 331.225C152.711 337.481 157.466 343.415 160.931 347.392H180.64C180.534 347.16 165.462 294.971 144.07 298.899C133.654 300.813 140.184 319.063 148.453 331.225Z" fill="#D7F3EF"/>
<path d="M142.562 299.34C146.419 302.272 150.235 306.789 153.833 312.042C154.001 312.288 154.17 312.533 154.331 312.779C159.304 320.157 163.835 328.875 167.475 336.64C167.594 336.892 167.713 337.145 167.825 337.397C169.495 340.974 170.961 344.488 172.181 347.392C172.202 347.441 172.223 347.343 172.244 347.392H172.616H172.995C169.838 339.894 165.041 329.009 159.402 319.365C159.198 319.014 158.988 318.663 158.785 318.313C154.092 310.429 148.846 303.261 143.495 299.032C143.165 299.116 142.849 299.214 142.562 299.34Z" fill="#AEEAE2"/>
<path d="M149.779 333.126C150.291 333.855 150.81 334.571 151.329 335.279C154.815 337.404 158.876 337.951 162.123 337.951C164.894 337.951 167.082 337.551 167.825 337.397C167.994 337.362 168.085 337.341 168.099 337.334L167.903 336.541C167.889 336.541 167.734 336.577 167.468 336.633C165.35 337.06 155.874 338.533 149.779 333.126Z" fill="#AEEAE2"/>
<path d="M138.711 307.077C138.725 307.61 138.767 308.15 138.838 308.718C141.741 312.386 146.616 313.144 150.13 313.144C152.388 313.144 154.092 312.828 154.331 312.779C154.359 312.772 154.191 311.979 154.191 311.979C154.177 311.979 154.05 312.007 153.826 312.042C151.862 312.358 142.408 313.522 138.711 307.077Z" fill="#AEEAE2"/>
<path d="M158.785 318.313C158.686 318.867 158.609 319.189 158.602 319.21L159.395 319.407C159.395 319.393 159.402 319.386 159.409 319.365C159.591 318.6 161.394 310.626 157.936 303.948C157.284 303.352 156.617 302.798 155.937 302.293C160.138 307.939 159.241 315.697 158.785 318.313Z" fill="#AEEAE2"/>
<path d="M180.85 348.142H180.071C177.399 326.841 173.128 308.416 167.285 292.923C167.187 292.649 167.075 292.383 166.97 292.109C158.245 269.322 146.069 252.965 130.526 243.244L130.751 242.894V242.887L130.968 242.557C130.989 242.571 131.003 242.578 131.024 242.592C139.455 247.873 146.938 255.098 153.398 264.173C153.594 264.447 153.784 264.714 153.98 264.994C158.28 271.166 162.13 278.18 165.483 285.993C167.622 290.952 169.572 296.289 171.332 301.992C171.43 302.293 171.529 302.588 171.613 302.882C175.66 316.131 178.739 331.288 180.85 348.142Z" fill="#AEEAE2"/>
<path d="M148.636 286.288C149.351 287.193 150.052 288.083 150.74 288.96C153.952 291.008 157.697 292.011 160.833 292.495C163.954 292.979 166.479 292.951 167.299 292.923C167.44 292.923 167.524 292.916 167.559 292.916L167.517 292.102C167.503 292.102 167.32 292.109 166.991 292.116C164.578 292.137 154.499 291.913 148.636 286.288Z" fill="#AEEAE2"/>
<path d="M153.391 264.173C153.272 264.531 153.188 264.735 153.181 264.749L153.938 265.05C153.945 265.036 153.952 265.015 153.966 264.987C154.324 264.068 157.543 255.455 154.759 247.481C154.345 247.123 153.91 246.765 153.454 246.401C156.645 253.555 154.17 261.936 153.391 264.173Z" fill="#AEEAE2"/>
<path d="M170.883 302.448L171.423 303.058C171.43 303.051 171.501 302.988 171.62 302.875C172.637 301.858 177.35 296.668 177.329 287.67C177.013 286.765 176.691 285.86 176.361 284.955C177.399 294.585 172.84 300.371 171.346 301.985C171.066 302.286 170.897 302.441 170.883 302.448Z" fill="#AEEAE2"/>
<path d="M350.534 347.925H349.727C357.351 316.216 367.304 290.167 379.312 271.005C391.025 252.313 405.031 239.366 420.959 232.541L421.289 233.306C389.32 247.004 365.515 285.615 350.534 347.925Z" fill="#AEEAE2"/>
<path d="M396.257 273.93C395.394 274.729 394.545 275.522 393.711 276.293C390.141 277.857 386.213 278.285 382.966 278.285C379.739 278.285 377.193 277.857 376.373 277.703C376.232 277.675 376.148 277.661 376.106 277.654L376.282 276.84C376.296 276.84 376.485 276.882 376.815 276.938C379.248 277.345 389.46 278.692 396.257 273.93Z" fill="#AEEAE2"/>
<path d="M394.917 250.861C394.987 251.24 395.036 251.457 395.036 251.479L394.223 251.668C394.223 251.654 394.216 251.633 394.209 251.598C393.991 250.616 392.091 241.414 396.145 233.797C396.621 233.502 397.119 233.208 397.631 232.913C393.29 239.625 394.482 248.477 394.917 250.861Z" fill="#AEEAE2"/>
<path d="M371.267 286.765L370.628 287.298C370.621 287.291 370.558 287.221 370.46 287.08C369.59 285.895 365.642 279.919 367.079 270.83C367.535 269.96 368.005 269.104 368.482 268.241C365.929 277.801 369.632 284.359 370.881 286.218C371.112 286.575 371.26 286.758 371.267 286.765Z" fill="#AEEAE2"/>
<path d="M338.632 52.0071V340.336C338.632 344.362 335.377 347.63 331.337 347.63H189.61C185.584 347.63 182.316 344.362 182.316 340.336V52.0071C182.316 47.9742 185.584 44.7128 189.61 44.7128H331.337C335.37 44.7198 338.632 47.9742 338.632 52.0071Z" fill="#363347"/>
<path d="M333.455 52.0071V340.336C333.455 344.362 330.201 347.63 326.161 347.63H184.434C180.408 347.63 177.14 344.362 177.14 340.336V52.0071C177.14 47.9742 180.408 44.7128 184.434 44.7128H326.161C330.194 44.7198 333.455 47.9742 333.455 52.0071Z" fill="#1D617A"/>
<path d="M316.356 320.557H194.246C188.853 320.557 184.469 315.928 184.469 310.233V76.934C184.469 71.2388 188.853 66.6097 194.246 66.6097H316.356C321.75 66.6097 326.133 71.2388 326.133 76.934V310.233C326.133 315.921 321.743 320.557 316.356 320.557Z" fill="#EEFBF9"/>
<g opacity="0.77">
<path d="M262.932 66.6028L205.854 320.557C205.854 320.557 193.524 320.536 193.166 320.501L250.244 66.6098H262.932V66.6028Z" fill="white"/>
</g>
<g opacity="0.77">
<path d="M313.782 66.6028L253.05 320.557H227.541L288.273 66.6028H313.782Z" fill="white"/>
</g>
<path d="M316.356 320.908H238.061V320.207H316.356C321.553 320.207 325.782 315.732 325.782 310.233V246.401H326.484V310.233C326.484 316.117 321.939 320.908 316.356 320.908ZM223.746 320.908H202.656V320.207H223.746V320.908Z" fill="#2D313D"/>
<path d="M24.5412 341.002L23.3839 327.431H33.3364L32.7333 341.002H24.5412Z" fill="#F0AB8F"/>
<path d="M23.412 327.648L24.0712 335.286C27.5781 335.511 30.9588 335.076 33.0138 334.725L33.3715 326.834L23.412 327.648Z" fill="#E09B82"/>
<path d="M21.925 348.262H47.8058C47.8339 347.953 47.897 347.006 47.7006 346.017C47.6936 345.996 22.2898 346.164 22.2898 346.164L21.925 348.262Z" fill="#2D313D"/>
<path d="M22.2827 346.164L47.6866 345.996C47.4411 343.366 44.1447 342.132 41.0586 341.346C40.8482 341.297 40.6448 341.248 40.4484 341.199C40.0065 341.094 39.5787 341.002 39.1649 340.911C38.9545 340.862 38.7441 340.82 38.5477 340.778C37.4816 340.539 36.5978 340.336 36.0928 340.098C35.637 339.88 35.0829 339.565 34.5989 339.27C34.4306 339.172 34.2833 339.074 34.143 338.982C33.6871 338.695 33.3575 338.477 33.3575 338.477C31.6952 339.024 29.1913 340.589 23.6925 338.099L23.5242 339.053L23.433 339.593L22.2827 346.164Z" fill="#2D313D"/>
<path d="M40.4484 341.199C40.8342 342.089 40.8762 343.043 40.8762 343.05L41.3953 343.029C41.3882 342.98 41.3602 342.195 41.0656 341.346C40.8552 341.297 40.6518 341.248 40.4484 341.199Z" fill="#2D313D"/>
<path d="M38.5477 340.771C38.9755 341.69 39.0176 342.707 39.0176 342.721L39.5366 342.707C39.5366 342.651 39.5015 341.802 39.1649 340.911C38.9545 340.862 38.7441 340.813 38.5477 340.771Z" fill="#2D313D"/>
<path d="M23.426 339.593C25.6914 340.722 27.6272 341.108 29.2334 341.108C32.2002 341.108 34.0168 339.768 34.5919 339.263C34.4236 339.165 34.2763 339.067 34.136 338.975C33.1681 339.803 29.6332 342.16 23.5172 339.045L23.426 339.593Z" fill="#2D313D"/>
<path d="M41.2059 331.877C31.7934 333.35 23.0543 333.967 16.4052 331.877C16.4052 331.877 10.7802 268.81 20.7537 210.855L40.7009 210.939C40.6939 210.946 48.3669 280.593 41.2059 331.877Z" fill="#DF6659"/>
<path d="M43.1557 153.349C46.887 153.04 49.3489 151.848 50.4781 149.807C52.1544 146.763 50.2256 143.004 50.1414 142.842L49.6645 143.088C49.6855 143.123 51.5442 146.756 50.0011 149.547C48.9701 151.42 46.6486 152.514 43.1066 152.809L43.1557 153.349Z" fill="#2D313D"/>
<path d="M82.8186 341.002L78.5402 327.431H88.4927L91.5226 341.002H82.8186Z" fill="#F0AB8F"/>
<path d="M78.5191 327.318L80.8757 334.781C85.3575 335.581 88.8083 334.823 90.0287 334.479L88.3314 326.898H84.7754L78.5191 327.318Z" fill="#E09B82"/>
<path d="M30.1943 170.764C30.1943 170.764 3.34557 175.688 5.75831 202.249C6.76128 213.289 15.1077 220.92 15.1077 220.92L18.1727 211.584L28.9108 215.196L30.1943 170.764Z" fill="#AEEAE2"/>
<path d="M43.1768 174.208L43.5415 159.647L35.1039 158.329L30.8886 172.286L43.1768 174.208Z" fill="#F0AB8F"/>
<path d="M40.231 164.774C35.132 162.446 29.9839 154.099 33.6661 145.964C36.5838 139.511 47.8199 143.165 49.9871 149.435C53.3607 159.163 51.951 170.133 40.231 164.774Z" fill="#F0AB8F"/>
<path d="M86.0168 185.591C86.4236 185.093 87.7703 183.55 87.8825 182.926C87.9877 182.344 88.149 179.125 88.8294 179.216C89.5448 179.314 88.9696 181.509 89.5448 181.495C89.9025 181.488 91.0948 177.203 91.8453 177.645C92.3362 177.932 91.2561 180.429 91.5647 180.478C91.8523 180.527 92.5396 177.175 93.2901 177.568C94.0757 177.974 92.0627 181.187 92.4344 181.355C92.6168 181.439 94.0616 177.532 94.6648 177.862C95.4714 178.311 93.4514 181.306 93.8021 181.537C93.9775 181.65 94.4965 180.464 94.9033 179.805C95.1277 179.433 95.4574 179.559 95.4433 179.847C95.282 182.877 91.5647 186.643 91.3824 187.127C91.1158 187.85 90.8423 188.544 90.5618 189.224L86.0168 185.591Z" fill="#F0AB8F"/>
<path d="M96.0535 331.274C86.9707 332.558 78.477 332.859 71.0986 331.274C40.4905 274.491 27.6763 210.343 27.6763 210.343H51.3268C81.8787 262.967 96.0535 331.274 96.0535 331.274Z" fill="#DF6659"/>
<path d="M76.0924 193.475L86.1571 183.782L91.8102 188.439C91.8102 188.439 89.4185 214.537 71.7999 212.58C59.3856 211.199 51.3338 187.218 51.3338 187.218L76.0924 193.475Z" fill="#AEEAE2"/>
<path d="M14.8341 227.625C36.191 237.346 67.2269 228.838 67.2269 228.838L66.2801 225.696L66.1328 225.212L58.06 198.328L79.2906 198.076C79.2906 198.076 65.0667 178.122 56.7834 173.268C54.6232 171.999 51.7195 171.045 48.4371 170.442C48.1846 170.399 47.918 170.35 47.6585 170.308C42.3281 169.439 36.0858 169.495 30.3977 170.701C30.1943 170.743 29.9979 170.785 29.8015 170.834C26.6102 171.557 23.6153 172.644 21.0764 174.138C21.0764 174.138 22.5983 182.709 20.4662 188.537C15.6126 201.779 14.8832 217.595 14.8061 224.335C14.799 224.525 14.799 224.707 14.799 224.882C14.799 226.615 14.8341 227.625 14.8341 227.625Z" fill="#AEEAE2"/>
<path d="M33.5048 232.036C33.8204 232.057 34.136 232.085 34.4516 232.106C34.6831 232.121 34.9075 232.142 35.139 232.149C51.7546 233.081 67.234 228.831 67.234 228.831L66.2871 225.689L66.1468 225.205L59.8765 204.234C58.8174 203.154 53.501 194.485 52.6664 190.978C52.6664 190.978 52.3157 199.948 55.1352 207.306C56.9167 211.949 58.9156 218.85 56.545 223.234C53.4659 228.915 33.7713 231.959 33.5048 232.036Z" fill="#9CDBD3"/>
<path d="M69.4128 185.034L68.9941 185.375L77.8686 196.265L78.2872 195.924L69.4128 185.034Z" fill="#2D313D"/>
<path d="M45.0284 165.848C47.7217 166.051 49.2857 164.767 49.3699 164.697L49.0262 164.283C48.914 164.375 46.2418 166.542 41.781 164.368L41.5425 164.852C42.8541 165.49 44.0184 165.77 45.0284 165.848Z" fill="#2D313D"/>
<path d="M14.8131 224.861C23.0332 228.242 31.8285 229.35 39.8452 229.35C52.1754 229.35 62.647 226.72 66.2801 225.689L66.1328 225.205C60.1641 226.909 35.5738 232.955 14.8131 224.321C14.8131 224.511 14.8131 224.693 14.8131 224.861Z" fill="#2D313D"/>
<path d="M15.1006 227.625C15.1006 227.393 15.1778 204.535 20.7327 188.607L20.2277 188.432C14.6447 204.444 14.5676 227.393 14.5676 227.625H15.1006Z" fill="#2D313D"/>
<path d="M29.8155 170.82C32.1441 173.058 34.8865 173.822 37.5587 173.822C42.6998 173.822 47.5393 170.989 48.4441 170.435C48.1916 170.392 47.9251 170.343 47.6656 170.301C45.2248 171.711 36.4085 176.109 30.4047 170.694C30.2083 170.729 30.0119 170.778 29.8155 170.82Z" fill="#2D313D"/>
<path d="M80.0271 348.262H105.908C105.936 347.953 105.999 347.006 105.803 346.017C105.796 345.996 80.3918 346.164 80.3918 346.164L80.0271 348.262Z" fill="#2D313D"/>
<path d="M80.3918 346.164L105.796 345.996C105.55 343.366 102.254 342.132 99.1676 341.346C98.9572 341.297 98.7538 341.248 98.5574 341.199C98.1156 341.094 97.6877 341.002 97.2739 340.911C97.0635 340.862 96.8531 340.82 96.6567 340.778C95.5906 340.539 94.7069 340.336 94.2019 340.098C93.746 339.88 93.1919 339.565 92.708 339.27C92.5396 339.172 92.3923 339.074 92.2521 338.982C91.7962 338.695 91.4665 338.477 91.4665 338.477C89.8043 339.024 87.3003 340.589 81.8015 338.099L81.6332 339.053L81.542 339.593L80.3918 346.164Z" fill="#2D313D"/>
<path d="M98.5574 341.199C98.9432 342.089 98.9853 343.043 98.9853 343.05L99.5043 343.029C99.4973 342.98 99.4692 342.195 99.1746 341.346C98.9642 341.297 98.7608 341.248 98.5574 341.199Z" fill="#2D313D"/>
<path d="M96.6567 340.771C97.0845 341.69 97.1266 342.707 97.1266 342.721L97.6457 342.707C97.6457 342.651 97.6106 341.802 97.2739 340.911C97.0635 340.862 96.8531 340.813 96.6567 340.771Z" fill="#2D313D"/>
<path d="M81.535 339.593C83.8005 340.722 85.7363 341.108 87.3424 341.108C90.3093 341.108 92.1258 339.768 92.7009 339.263C92.5326 339.165 92.3853 339.067 92.2451 338.975C91.2772 339.803 87.7422 342.16 81.6262 339.045L81.535 339.593Z" fill="#2D313D"/>
<path d="M52.3518 193.357L51.9435 193.711L54.8723 197.094L55.2806 196.74L52.3518 193.357Z" fill="#2D313D"/>
<path d="M17.2889 224.812H17.829C17.829 219.58 18.4602 213.008 18.4673 212.945L17.9342 212.896C17.9272 212.959 17.2889 219.559 17.2889 224.812Z" fill="#2D313D"/>
<path d="M11.7831 182.386C16.805 186.559 30.075 187.815 36.5137 177.553C41.255 169.993 40.9815 160.552 40.5606 157.873L42.6998 153.559C42.6998 153.559 50.4009 151.532 49.8889 142.934C49.8889 142.934 48.9912 143.439 46.5854 142.856C45.2458 142.527 41.8652 140.633 38.204 140.836C38.197 140.836 38.183 140.829 38.1689 140.836C34.9075 140.752 27.8797 141.924 25.5512 152.409C23.6294 161.05 16.2088 160.854 12.218 163.828C4.24334 169.768 6.109 177.673 11.7831 182.386Z" fill="#2D313D"/>
<path d="M39.1228 155.25C38.9194 156.561 39.8172 157.789 41.1287 157.992C42.4403 158.195 43.6677 157.298 43.8711 155.986C44.0745 154.675 43.1768 153.447 41.8652 153.244C40.5536 153.04 39.3262 153.938 39.1228 155.25Z" fill="#F0AB8F"/>
<path d="M5.77934 167.524C6.6771 165.378 8.40951 163.491 10.9134 161.92C12.0847 161.183 13.5366 160.713 15.0656 160.222C18.832 159.016 23.1033 157.641 24.955 151.624C28.034 141.58 35.0127 141.194 37.8673 141.496H37.9866C40.5957 141.594 42.9383 142.73 44.4953 143.488C45.0705 143.768 45.5193 143.986 45.87 144.105L46.0594 143.544C45.7508 143.438 45.2879 143.214 44.7548 142.962C43.1277 142.169 40.6658 140.977 37.9375 140.914H37.9024C34.8795 140.605 27.5851 141.026 24.3869 151.462C22.6264 157.192 18.6917 158.455 14.8832 159.675C13.3121 160.18 11.8322 160.65 10.5978 161.436C7.98167 163.077 6.17913 165.055 5.23227 167.313L5.77934 167.524Z" fill="#2D313D"/>
<path d="M20.8589 332.845C26.7505 333.673 33.7713 333.049 41.1989 331.884C43.9974 311.867 44.3831 289.353 44.0044 268.971C43.9903 269.209 37.8884 249.55 37.8884 249.55C37.8884 249.55 40.5466 264.903 39.6348 274.147C38.695 283.693 35.2021 286.512 33.8555 297.264C33.0699 303.549 36.2051 308.283 35.0618 314.876C33.8625 321.806 28.546 326.098 23.3558 330.755C22.6124 331.436 21.6796 332.109 20.8589 332.845Z" fill="#C9544B"/>
<path d="M44.313 270.128L44.8741 269.932C42.3842 262.792 39.9995 255.434 37.7762 248.049L37.208 248.217C39.4314 255.61 41.8231 262.981 44.313 270.128Z" fill="#2D313D"/>
<path d="M69.6747 328.602C70.1377 329.493 70.6146 330.383 71.0985 331.281C78.477 332.859 86.9707 332.558 96.0535 331.281C96.0535 331.281 89.5938 300.161 76.0012 263.746C75.3699 270.416 77.0111 277.366 78.968 283.882C81.5491 292.453 84.6982 301.178 83.9127 310.093C83.3446 316.552 80.013 323.44 74.3389 326.905C72.9923 327.732 71.351 328.195 69.6747 328.602Z" fill="#C9544B"/>
<path d="M85.1962 291.71L85.7643 291.534C78.7856 268.957 70.8601 248.371 62.2051 230.346L61.6721 230.606C70.313 248.603 78.2316 269.16 85.1962 291.71Z" fill="#2D313D"/>
<path d="M73.6446 212.945C73.0344 212.945 72.4101 212.91 71.7719 212.84C62.0578 211.76 54.9809 197.003 52.3858 190.704L52.8698 190.501C55.4298 196.708 62.3945 211.262 71.828 212.314C75.8118 212.756 79.3257 211.76 82.2785 209.354C90.1269 202.95 91.5367 188.551 91.5507 188.411L92.0767 188.46C92.0627 188.607 90.6389 203.224 82.6152 209.768C80.0271 211.879 77.0112 212.945 73.6446 212.945Z" fill="#2D313D"/>
<path d="M112.115 80.5601V112.809C112.115 117.179 108.573 120.728 104.197 120.728H59.9958L50.2536 129.39V120.728H50.0362C45.6666 120.728 42.1177 117.186 42.1177 112.809V80.5601C42.1177 76.1906 45.6596 72.6416 50.0362 72.6416H104.204C108.573 72.6486 112.115 76.1906 112.115 80.5601Z" fill="white"/>
<path d="M71.4703 101.237C73.9812 100.697 76.0082 99.287 76.7657 97.5686C77.2777 96.4043 77.1935 95.1067 76.5202 93.9144C75.6365 92.3573 73.9111 91.2772 71.9051 91.0317C69.773 90.7722 67.3813 91.3754 65.5086 92.6519C63.8323 93.7952 63.2291 94.3773 62.4786 96.0396L63.5728 96.5305C64.19 95.1629 64.5758 94.735 66.1819 93.6409C67.7951 92.5397 69.9343 91.9997 71.7578 92.2241C73.364 92.4205 74.7878 93.2972 75.4751 94.5106C75.9591 95.3592 76.0292 96.278 75.6715 97.0846C75.0754 98.4383 73.3219 99.6096 71.2178 100.065L71.4703 101.237Z" fill="#363347"/>
<path d="M58.1792 105.971C56.7484 104.393 55.9348 102.457 55.8156 100.409C55.5911 99.9743 55.3947 99.5254 55.2404 99.0625C54.2865 96.3271 54.5881 93.4655 56.0961 91.0107C59.3926 85.6171 68.0476 82.3627 75.7978 83.5971C83.4147 84.8105 89.1871 90.0638 89.5307 96.0886C89.8534 101.826 85.07 107.619 78.1474 109.878C76.0082 110.572 73.7147 110.909 71.4492 110.909C66.1819 110.909 61.0408 109.12 58.1792 105.971ZM57.1131 91.6349C55.9839 93.4795 55.6332 95.5836 56.0821 97.6527C56.6782 95.2259 58.2213 92.9254 60.4446 91.172C62.4295 89.6149 65.9995 88.0368 67.9494 87.8755C70.6567 87.6441 74.5914 87.6932 77.951 89.2292C80.7635 90.5197 82.6713 92.8343 83.1903 95.5836C83.6883 98.1928 82.8536 100.844 80.9178 102.864C76.9691 106.974 68.8121 108.51 62.7451 106.28C60.7112 105.536 58.9577 104.386 57.6111 102.948C57.9547 103.741 58.4387 104.491 59.0629 105.171C62.8574 109.352 71.0775 110.923 77.7686 108.741C84.1792 106.651 88.6189 101.363 88.3244 96.1588C88.0228 90.7792 82.545 85.8836 75.6014 84.7754C74.5844 84.6141 73.5464 84.537 72.5083 84.537C66.1819 84.537 59.7012 87.4056 57.1131 91.6349ZM68.0546 89.0608C66.3292 89.2081 62.9906 90.688 61.1881 92.1048C58.7613 94.0126 57.2464 96.6147 57.0289 99.2448C57.0079 99.5254 56.9939 99.8059 57.0009 100.079C58.2353 102.331 60.4096 104.133 63.159 105.143C68.7279 107.191 76.4641 105.761 80.0551 102.022C81.7244 100.283 82.4398 98.0174 82.019 95.7941C81.5701 93.4304 79.9078 91.4315 77.453 90.3093C75.5242 89.4256 73.0273 88.9627 70.2709 88.9627C69.5485 88.9697 68.805 88.9977 68.0546 89.0608Z" fill="#363347"/>
<path d="M96.3972 101.938C98.0735 100.514 99.3079 98.7468 99.9742 96.825C101.124 93.5496 100.549 90.169 98.3891 87.5528C96.9372 85.7924 94.0335 84.088 90.6319 82.9939L90.2672 84.1371C93.4654 85.1611 96.1517 86.7252 97.4703 88.3173C99.357 90.6038 99.862 93.5636 98.852 96.4393C98.2558 98.1647 97.1406 99.7498 95.6327 101.033L96.3972 101.938Z" fill="#363347"/>
<path d="M86.7883 107.156C92.3993 107.156 96.306 105.164 98.3891 102.717C99.7217 101.146 100.255 99.1396 100.002 96.5796C99.6796 93.2481 97.5264 90.1971 94.251 88.4086L93.6759 89.4606C96.6006 91.0598 98.5224 93.7601 98.8099 96.6918C99.0274 98.9082 98.5925 100.627 97.4773 101.938C94.6017 105.326 87.8123 107.724 77.3899 104.302L77.0182 105.438C80.7004 106.651 83.9618 107.156 86.7883 107.156Z" fill="#363347"/>
<path d="M65.0737 106.876L65.9575 106.069C69.5555 110.039 77.6915 112.936 84.551 110.705C91.3122 108.503 96.2008 103.116 95.9203 98.1787C95.6187 92.7992 90.1409 87.9036 83.1973 86.7954C76.0152 85.6451 67.7179 88.7242 64.702 93.6478C63.3904 95.7941 63.1239 98.291 63.9585 100.683C64.9685 103.586 67.4444 105.95 70.7479 107.163C76.3168 109.211 84.053 107.781 87.644 104.042C89.3133 102.303 90.0287 100.037 89.6079 97.814C89.159 95.4504 87.4967 93.4515 85.0419 92.3293C82.2855 91.0668 78.6384 90.8844 75.7557 91.8663C72.8941 92.8413 70.825 94.9664 70.6356 97.0986C71.323 96.1307 72.1506 95.3171 73.1045 94.6718C74.9772 93.3953 77.3689 92.7922 79.501 93.0517C81.5 93.2972 83.2254 94.3773 84.1161 95.9343C84.7894 97.1197 84.8806 98.4172 84.3616 99.5885C83.1973 102.226 79.1433 103.965 75.5172 103.369C73.2588 103.004 71.3791 101.812 70.3341 100.248C69.773 101.805 69.7589 103.151 70.292 104.274C70.6006 104.912 71.1617 105.515 71.8771 105.964L71.2388 106.974C70.3341 106.406 69.6116 105.627 69.2119 104.786C68.4333 103.166 68.5385 101.237 69.5275 99.0484C69.5625 98.9643 69.6046 98.8801 69.6397 98.803C69.4924 98.312 69.4153 97.807 69.4293 97.288C69.4994 94.5947 71.9472 91.8944 75.377 90.7301C78.5893 89.636 82.4819 89.8324 85.5469 91.2351C88.3594 92.5256 90.2672 94.8402 90.7932 97.5896C91.2912 100.199 90.4566 102.85 88.5208 104.87C84.572 108.98 76.415 110.516 70.3481 108.286C66.7009 106.946 63.9656 104.316 62.8363 101.075C61.8825 98.34 62.1841 95.4784 63.692 93.0236C66.9885 87.63 75.6505 84.3756 83.3937 85.6101C91.0106 86.8234 96.783 92.0768 97.1266 98.1016C97.4352 103.565 92.196 109.471 84.9297 111.835C83.1763 112.403 81.3457 112.662 79.5221 112.662C73.7217 112.676 68.0055 110.102 65.0737 106.876ZM73.7778 95.6678C72.6135 96.4604 71.6597 97.5405 70.9443 98.8871C71.6526 100.5 73.4832 101.833 75.7066 102.198C78.7856 102.703 82.3206 101.258 83.2674 99.1116C83.6251 98.298 83.555 97.3862 83.0711 96.5375C82.3837 95.3241 80.9599 94.4474 79.3538 94.251C79.0802 94.216 78.8067 94.2019 78.5191 94.2019C76.8989 94.1949 75.1455 94.728 73.7778 95.6678Z" fill="#363347"/>
<path d="M61.0689 101.349C59.4417 99.5534 58.8034 97.0355 59.2734 94.2721C59.4347 93.3462 59.7012 92.4274 60.0729 91.5437C59.7292 89.3554 60.1711 87.1531 61.3564 85.2103C64.4986 80.0692 72.4312 77.3969 80.6443 78.7085C88.7873 80.0061 94.4754 84.6632 94.7911 90.2953C95.1137 96.0255 90.3303 101.826 83.4077 104.084C80.7074 104.961 77.4671 105.424 74.2618 105.424C68.8822 105.417 63.5868 104.119 61.0689 101.349ZM62.3805 85.8345C61.7001 86.9497 61.3003 88.1631 61.1881 89.4115C62.5558 87.2583 64.5196 85.3996 66.8552 84.1372L67.4233 85.1892C64.7301 86.6411 62.5207 89.0468 61.3144 91.712C61.3915 92.1048 61.4967 92.4906 61.63 92.8763C62.64 95.78 65.1158 98.1437 68.4193 99.357C73.9882 101.405 81.7244 99.9743 85.3155 96.2359C86.9847 94.4965 87.7001 92.2311 87.2793 90.0077C86.8304 87.6441 85.1682 85.6451 82.7134 84.5229C79.9569 83.2604 76.3098 83.0781 73.4271 84.06C70.4603 85.07 68.3492 87.3144 68.2931 89.5167L67.0937 89.4887C67.1638 86.7954 69.6116 84.0951 73.0414 82.9308C76.2537 81.8367 80.1463 82.033 83.2113 83.4358C86.0239 84.7263 87.9316 87.0409 88.4576 89.7903C88.9556 92.3994 88.121 95.0506 86.1852 97.0705C82.2364 101.181 74.0864 102.717 68.0125 100.486C64.5056 99.1957 61.8334 96.7129 60.634 93.6338C60.5639 93.9144 60.5008 94.2019 60.4517 94.4825C60.0449 96.8812 60.5779 99.0414 61.9526 100.556C65.6629 104.645 76.1485 105.192 83.036 102.948C89.4466 100.858 93.8863 95.5696 93.5917 90.3654C93.3041 85.3085 88.0228 81.1002 80.4479 79.8938C79.1504 79.6904 77.8598 79.5852 76.5903 79.5852C70.3972 79.5852 64.7511 81.9629 62.3805 85.8345Z" fill="#363347"/>
<path d="M71.7228 115.334C72.2208 114.9 72.7328 114.451 73.2798 114.023C75.398 112.375 77.6915 111.203 80.0972 110.544C91.4946 107.416 89.9235 99.5745 89.8534 99.2449L91.0247 98.9854C91.0457 99.0765 92.9464 108.258 80.4199 111.701C78.1684 112.319 76.0152 113.42 74.0233 114.97C73.5043 115.377 73.0063 115.811 72.5223 116.239L71.7228 115.334Z" fill="#363347"/>
<path d="M50.6043 129.39H49.903V121.079H49.6014C46.0804 121.079 42.9383 118.841 41.788 115.517L42.4543 115.285C43.5064 118.329 46.382 120.377 49.6084 120.377H50.6113V129.39H50.6043Z" fill="#2D313D"/>
<path d="M42.0335 108.966H41.3321V80.5671C41.3321 76.0081 45.0424 72.2979 49.6014 72.2979H62.668V72.9992H49.6014C45.4282 72.9992 42.0335 76.3939 42.0335 80.5671V108.966Z" fill="#2D313D"/>
<path d="M82.5661 72.2979H70.1026V72.9992H82.5661V72.2979Z" fill="#2D313D"/>
<path d="M312.183 86.4937V91.9785H129.474V86.4937C129.474 81.7524 133.479 77.8878 138.382 77.8878H303.282C308.178 77.8878 312.183 81.7524 312.183 86.4937Z" fill="#1D617A"/>
<path d="M312.183 91.9785V223.676C312.183 228.41 308.178 232.275 303.282 232.275H138.382C133.479 232.275 129.474 228.41 129.474 223.676V91.9785H312.183Z" fill="#AEEAE2"/>
<path d="M219.847 91.172C219.847 91.172 216.613 87.4056 218.472 84.8175C218.472 84.8175 213.282 72.9502 224.139 72.5785C224.139 72.5785 226.012 61.9947 243.343 71.4633C243.343 71.4633 257.903 69.0225 251.927 92.189C252.804 97.316 253.281 103.383 247.495 103.523L219.847 91.172Z" fill="#2D313D"/>
<path d="M250.237 118.084L247.27 96.6777L232.015 105.501L230.627 118.462L223.353 121.051C228.389 127.601 246.604 129.229 254.971 119.402L250.237 118.084Z" fill="#F0AB8F"/>
<path d="M230.921 115.383C239.906 112.438 241.758 105.206 241.758 105.206L231.686 108.299L230.921 115.383Z" fill="#2D313D"/>
<path d="M245.243 92.5396C245.243 92.5396 246.878 82.1242 240.853 78.6804C234.828 75.2366 222.905 75.0613 220.485 83.2113C219.11 87.8334 220.176 100.241 221.235 105.206C222.189 109.667 225.598 113.02 230.031 113.02C240.565 113.013 244.816 99.6796 244.816 99.6796L245.243 92.5396Z" fill="#F0AB8F"/>
<path d="M276.518 232.492H207.313C208.344 222.673 209.2 214.86 209.782 210.231H275.255L276.518 232.492Z" fill="#253B3E"/>
<path d="M252.923 118.645C252.923 118.645 229.476 129.664 227.821 119.458L224.055 120.714L217.616 216.999C229.245 220.948 246.029 219.559 263.935 216.999L264.587 128.38L259.601 120.034L252.923 118.645Z" fill="#1D617A"/>
<path d="M228.13 232.857H202.803L205.342 195.902L211.64 135.997C211.682 136.642 227.821 119.458 227.821 119.458C227.821 119.458 228.256 138.929 228.831 152.423C229.708 172.952 228.13 232.857 228.13 232.857Z" fill="white"/>
<path d="M247.074 232.857C247.074 232.857 245.79 171.879 246.394 153.531C246.885 138.592 249.346 128.289 251.079 122.776C251.535 121.338 251.934 120.216 252.236 119.43C252.32 119.213 252.404 119.024 252.468 118.848C252.489 118.806 252.51 118.764 252.524 118.722C252.608 118.526 252.671 118.364 252.72 118.252C252.797 118.084 252.839 118 252.839 118L253.66 118.792L253.997 119.129L254.649 119.76L264.594 129.481L266.222 131.08L266.776 131.613L275.662 140.296L280.957 170.82L285.278 195.726L288.455 214.06V214.067L288.546 214.621L291.646 232.857H247.074Z" fill="white"/>
<path d="M179.125 152.269C178.353 151.385 175.786 148.636 175.541 147.492C175.316 146.433 174.818 140.535 173.577 140.752C172.279 140.984 173.457 144.968 172.405 144.975C171.753 144.975 169.305 137.196 167.959 138.045C167.075 138.599 169.2 143.109 168.639 143.228C168.113 143.333 166.654 137.231 165.307 137.996C163.898 138.795 167.783 144.561 167.11 144.89C166.78 145.052 163.891 137.975 162.811 138.62C161.359 139.49 165.244 144.855 164.62 145.311C164.312 145.536 163.28 143.389 162.502 142.197C162.074 141.531 161.464 141.776 161.513 142.309C161.99 147.85 169.039 154.541 169.396 155.418C169.923 156.723 170.47 157.985 171.031 159.213L179.125 152.269Z" fill="#F0AB8F"/>
<path d="M234.526 124.228C241.968 124.228 252.566 119.297 253.113 119.045L252.741 118.252C252.58 118.329 236.567 125.778 230.458 122.552C229.217 121.899 228.501 120.861 228.263 119.388L227.4 119.529C227.681 121.268 228.572 122.544 230.052 123.323C231.265 123.961 232.808 124.228 234.526 124.228Z" fill="#5D567C"/>
<path d="M245.328 100.493C245.328 100.493 250.791 100.963 250.749 96.1517C250.714 91.8101 245.433 91.2631 244.233 93.4233L245.328 100.493Z" fill="#F0AB8F"/>
<path d="M216.192 190.964C216.192 190.964 188.095 208.912 175.961 178.521C172.777 170.554 168.597 157.171 168.597 157.171L178.795 149.309L193.552 163.736C193.552 163.736 197.648 151.862 200.734 142.351C204.907 129.502 214.558 122.538 228.123 118.848L216.192 190.964Z" fill="white"/>
<path d="M246.373 92.1889C246.373 92.1889 244.184 93.1007 244.535 95.3662C244.535 95.3662 241.835 95.6046 241.758 92.8342C241.68 90.0638 241.435 85.6381 241.435 85.6381C241.435 85.6381 240.684 82.0961 235.592 81.8717C235.592 81.8717 233.713 87.4056 228.614 85.5259C228.614 85.5259 225.815 90.6179 219.839 87.8544C219.839 87.8544 217.967 76.7797 227.828 74.9C237.697 73.0203 244.233 75.6785 245.005 79.1083C245.945 83.3516 246.373 92.1889 246.373 92.1889Z" fill="#2D313D"/>
<path d="M228.2 152.283C228.2 144.413 223.872 134.917 223.234 133.563L224.455 130.982L220.934 130.638C222.098 127.103 225.773 123.386 225.815 123.344L225.289 122.818C225.121 122.986 221.137 127.019 220.092 130.863L219.973 131.291L223.325 131.62L222.407 133.563L222.484 133.724C222.533 133.83 227.449 144 227.449 152.283H228.2Z" fill="#2D313D"/>
<path d="M212.682 164.731L210.14 186.662L210.879 186.748L213.42 164.817L212.682 164.731Z" fill="#433A60"/>
<path d="M226.313 169.733C225.408 169.733 224.665 170.477 224.665 171.367C224.665 172.272 225.401 173.002 226.313 173.002C227.211 173.002 227.947 172.272 227.947 171.367C227.954 170.477 227.211 169.733 226.313 169.733ZM226.313 172.139C225.885 172.139 225.549 171.802 225.549 171.374C225.549 170.961 225.885 170.617 226.313 170.617C226.727 170.617 227.071 170.954 227.071 171.374C227.071 171.795 226.734 172.139 226.313 172.139Z" fill="#323847"/>
<path d="M252.257 92.3502C252.482 91.8873 257.756 80.8827 253.716 74.8228C251.892 72.0875 248.456 70.832 243.511 71.0775C242.887 70.348 240.081 67.3462 235.613 67.0235C231.777 66.743 227.828 68.5245 223.886 72.3119L224.405 72.852C228.186 69.2188 231.938 67.5145 235.55 67.767C240.2 68.1036 243.027 71.6596 243.055 71.6947L243.174 71.849L243.371 71.835C248.14 71.5614 251.408 72.7047 253.106 75.2366C256.907 80.9388 251.654 91.9154 251.598 92.0206L252.257 92.3502Z" fill="#2D313D"/>
<path d="M213.667 147.724C213.674 147.696 214.032 145.164 214.032 141.931C214.032 137.694 213.408 132.006 210.434 129.004L209.88 129.558C212.671 132.371 213.254 137.842 213.254 141.931C213.254 145.108 212.896 147.591 212.896 147.612L213.667 147.724Z" fill="#2D313D"/>
<path d="M235.522 199.647L202.515 199.394C201.421 199.387 200.503 198.574 200.355 197.487L193.952 149.625C193.776 148.299 194.807 147.128 196.147 147.135L229.154 147.387C230.248 147.394 231.174 148.208 231.314 149.295L237.718 197.157C237.893 198.483 236.855 199.661 235.522 199.647Z" fill="#DF6659"/>
<path d="M239.569 172.784C238.447 172.44 234.821 171.451 234.007 170.603C233.257 169.817 229.736 165.062 228.796 165.897C227.807 166.773 230.914 169.544 230.016 170.105C229.462 170.449 223.29 165.118 222.589 166.549C222.133 167.489 226.306 170.203 225.892 170.603C225.507 170.968 221.053 166.549 220.302 167.903C219.517 169.319 225.857 172.188 225.458 172.819C225.261 173.135 219.089 168.625 218.507 169.747C217.728 171.248 223.858 173.773 223.564 174.488C223.417 174.839 221.411 173.563 220.12 172.952C219.405 172.616 219.019 173.135 219.334 173.57C222.659 178.037 232.17 180.015 232.927 180.576C234.063 181.411 235.193 182.197 236.315 182.947L239.569 172.784Z" fill="#F0AB8F"/>
<path d="M267.526 174.047L237.781 170.161L232.955 183.627C232.955 183.627 248.035 197.339 265.717 202.319C273.291 204.451 283.321 205.574 290.84 199.703C307.322 186.84 299.888 159.304 285.818 135.183C277.843 121.514 252.839 117.986 252.839 117.986L267.526 174.047Z" fill="white"/>
<path d="M247.859 153.251C250.441 140.135 256.886 134.159 256.949 134.103L257.16 133.914L255.554 130.73L259.089 130.821L259.046 130.4C258.513 124.761 254.053 120.791 253.863 120.623L253.372 121.184C253.414 121.219 257.574 124.922 258.261 130.049L254.333 129.951L256.248 133.745C255.084 134.896 249.536 140.906 247.137 153.11L247.859 153.251Z" fill="#2D313D"/>
<path d="M264.293 147.605L265.071 147.485C264.728 145.276 264.552 143.193 264.552 141.299C264.552 127.117 274.014 126.767 274.414 126.753L274.4 125.967C274.294 125.967 263.767 126.325 263.767 141.292C263.767 143.228 263.942 145.353 264.293 147.605Z" fill="#2D313D"/>
<path d="M237.821 169.805L237.731 170.501L267.476 174.385L267.567 173.69L237.821 169.805Z" fill="#2D313D"/>
<path d="M277.023 204.395C273.544 204.395 269.735 203.813 265.618 202.656L265.808 201.982C273.754 204.22 280.523 204.262 285.93 202.116C287.628 201.442 289.206 200.538 290.622 199.436L291.057 199.99C289.591 201.134 287.95 202.074 286.197 202.768C283.461 203.855 280.396 204.395 277.023 204.395Z" fill="#2D313D"/>
<path d="M265.618 202.663C248.056 197.718 232.864 184.027 232.717 183.894L233.187 183.375C233.334 183.515 248.414 197.087 265.808 201.989L265.618 202.663Z" fill="#2D313D"/>
<path d="M268.118 157.097L267.432 157.243L270.915 173.589L271.601 173.443L268.118 157.097Z" fill="#2D313D"/>
<path d="M144.378 84.9296C144.378 86.634 142.997 88.0087 141.299 88.0087C139.602 88.0087 138.22 86.627 138.22 84.9296C138.22 83.2253 139.602 81.8506 141.299 81.8506C142.997 81.8506 144.378 83.2323 144.378 84.9296Z" fill="white"/>
<path d="M153.391 84.9296C153.391 86.634 152.009 88.0087 150.312 88.0087C148.608 88.0087 147.233 86.627 147.233 84.9296C147.233 83.2253 148.615 81.8506 150.312 81.8506C152.009 81.8506 153.391 83.2323 153.391 84.9296Z" fill="white"/>
<path d="M162.404 84.9296C162.404 86.634 161.022 88.0087 159.325 88.0087C157.62 88.0087 156.246 86.627 156.246 84.9296C156.246 83.2253 157.627 81.8506 159.325 81.8506C161.022 81.8506 162.404 83.2323 162.404 84.9296Z" fill="white"/>
<path d="M205.609 149.576C204.9 149.576 204.304 149.057 204.199 148.355L203.75 145.283C203.673 144.687 204.136 144.154 204.746 144.161L219.671 144.273C220.169 144.28 220.583 144.645 220.646 145.136L221.025 147.969C221.137 148.825 220.478 149.583 219.615 149.583H205.609V149.576Z" fill="#2D313D"/>
<path d="M200.384 169.586L199.689 169.678L200.459 175.442L201.154 175.349L200.384 169.586Z" fill="#2D313D"/>
<path d="M211.647 196.182L205.433 196.098C204.171 196.091 203.098 195.137 202.929 193.889L200.972 179.258L201.667 179.167L203.624 193.797C203.743 194.702 204.528 195.389 205.44 195.396L211.661 195.481L211.647 196.182Z" fill="#2D313D"/>
<path d="M215.942 195.542L215.932 196.244L223.829 196.352L223.838 195.651L215.942 195.542Z" fill="#2D313D"/>
<path d="M212.426 91.6278H136.614V92.3292H212.426V91.6278Z" fill="#2D313D"/>
<path d="M312.533 86.4937H311.832C311.832 81.9418 307.996 78.2385 303.282 78.2385H263.886V77.5371H303.282C308.381 77.5371 312.533 81.556 312.533 86.4937Z" fill="#2D313D"/>
<path d="M129.825 86.4937H129.123C129.123 81.556 133.276 77.5371 138.382 77.5371H207.46V78.2385H138.382C133.661 78.2385 129.825 81.9418 129.825 86.4937Z" fill="#2D313D"/>
<path d="M129.825 113.882H129.123V133.598H129.825V113.882Z" fill="#2D313D"/>
<path d="M312.533 223.676H311.832V92.3292H260.155V91.6278H312.533V223.676Z" fill="#2D313D"/>
<path d="M303.282 232.626H138.382C133.276 232.626 129.123 228.614 129.123 223.676V145.781H129.825V223.676C129.825 228.221 133.661 231.924 138.382 231.924H303.282V232.626Z" fill="#2D313D"/>
<path d="M421.569 347.441H0V348.844H421.569V347.441Z" fill="#2D313D"/>
<path d="M101.312 253.755L89.8757 256.923L90.2502 258.275L101.687 255.107L101.312 253.755Z" fill="white"/>
<path d="M366.415 92.7644L365.692 93.9666L375.862 100.081L376.585 98.8784L366.415 92.7644Z" fill="#8DE2D7"/>
<path d="M88.409 44.5781L87.4171 45.5699L95.8085 53.9613L96.8004 52.9694L88.409 44.5781Z" fill="#8DE2D7"/>
<g opacity="0.6">
<path d="M86.7855 138.324L85.4607 138.785L89.3615 149.992L90.6862 149.531L86.7855 138.324Z" fill="#DF6659"/>
</g>
<g opacity="0.6">
<path d="M121.875 254.609L120.557 255.089L124.619 266.239L125.937 265.759L121.875 254.609Z" fill="#DF6659"/>
</g>
<path d="M254.168 24.6293L247.364 34.3534L248.514 35.1576L255.317 25.4335L254.168 24.6293Z" fill="white"/>
<g opacity="0.6">
<path d="M354.938 112.026L351.047 123.237L352.373 123.697L356.263 112.486L354.938 112.026Z" fill="#DF6659"/>
</g>
<path d="M152.269 8.66903V42.5596C152.269 47.1536 155.993 50.8779 160.587 50.8779H207.046L217.286 59.9817V50.8849H217.511C222.105 50.8849 225.829 47.1606 225.829 42.5666V8.66903C225.829 4.07502 222.105 0.350708 217.511 0.350708H160.58C155.993 0.350708 152.269 4.07502 152.269 8.66903Z" fill="#AEEAE2"/>
<path d="M213.064 11.8533H165.041V13.256H213.064V11.8533Z" fill="white"/>
<path d="M213.064 20.6135H165.041V22.0163H213.064V20.6135Z" fill="white"/>
<path d="M213.064 29.3737H165.041V30.7764H213.064V29.3737Z" fill="white"/>
<path d="M199.191 38.1339H165.041V39.5367H199.191V38.1339Z" fill="white"/>
<path d="M152.62 42.5665H151.918V8.66901C151.918 3.89264 155.804 0 160.587 0H217.518V0.701377H160.587C156.197 0.701377 152.62 4.2784 152.62 8.66901V42.5665Z" fill="#2D313D"/>
<path d="M217.644 60.7673L206.815 51.1444L207.278 50.6184L216.936 59.2033V50.5342H217.511C221.902 50.5342 225.479 46.9572 225.479 42.5666V8.66907H226.18V42.5596C226.18 47.3009 222.357 51.1585 217.637 51.2286V60.7673H217.644Z" fill="#2D313D"/>
<path d="M197.557 50.5342H160.587V51.2356H197.557V50.5342Z" fill="#2D313D"/>
</svg>
